<svg width="41" height="41" viewBox="0 0 41 41" fill="none" xmlns="http://www.w3.org/2000/svg">
<path d="M20.5 0C16.4455 0 12.482 1.2023 9.11082 3.45487C5.73961 5.70744 3.11207 8.9091 1.56048 12.655C0.0088823 16.4009 -0.397086 20.5227 0.393911 24.4993C1.18491 28.476 3.13734 32.1287 6.00432 34.9957C8.87129 37.8627 12.524 39.8151 16.5007 40.6061C20.4773 41.3971 24.5991 40.9911 28.345 39.4395C32.0909 37.8879 35.2926 35.2604 37.5451 31.8892C39.7977 28.518 41 24.5545 41 20.5C41 15.0631 38.8402 9.8488 34.9957 6.00431C31.1512 2.15981 25.9369 0 20.5 0ZM11.7143 29.2857H8.78572V11.7143H11.7143V29.2857ZM32.2143 27.8214C32.2143 28.0765 32.1477 28.3271 32.0211 28.5485C31.8944 28.7699 31.7122 28.9543 31.4923 29.0836C31.2725 29.2129 31.0227 29.2826 30.7677 29.2857C30.5127 29.2887 30.2613 29.2252 30.0384 29.1012L16.8598 21.7798C16.6316 21.6529 16.4415 21.4674 16.3092 21.2424C16.1768 21.0174 16.107 20.761 16.107 20.5C16.107 20.2389 16.1768 19.9826 16.3092 19.7576C16.4415 19.5326 16.6316 19.3471 16.8598 19.2202L30.0384 11.8988C30.2613 11.7748 30.5127 11.7112 30.7677 11.7143C31.0227 11.7174 31.2725 11.787 31.4923 11.9163C31.7122 12.0456 31.8944 12.2301 32.0211 12.4515C32.1477 12.6729 32.2143 12.9235 32.2143 13.1786V27.8214Z" fill="#6C6363"/>
</svg>
