<svg width="64" height="49" viewBox="0 0 64 49" fill="none" xmlns="http://www.w3.org/2000/svg">
<path d="M43.16 43.4398L36.704 37.2127C34.2074 38.0731 31.5086 38.2325 28.9217 37.6722C26.3348 37.1119 23.9661 35.855 22.0913 34.0477C20.2165 32.2405 18.9126 29.9572 18.3313 27.4635C17.7501 24.9698 17.9154 22.3683 18.808 19.9616L10.568 12.0186C3.752 17.8602 0 24.5 0 24.5C0 24.5 12 45.7071 32 45.7071C35.8416 45.6942 39.6397 44.9226 43.16 43.4398ZM20.84 5.56008C24.3602 4.07722 28.1584 3.3056 32 3.29285C52 3.29285 64 24.5 64 24.5C64 24.5 60.244 31.1359 53.436 36.9852L45.188 29.0344C46.0806 26.6278 46.2459 24.0263 45.6647 21.5326C45.0834 19.0389 43.7795 16.7556 41.9047 14.9484C40.0299 13.1411 37.6612 11.8842 35.0743 11.3239C32.4874 10.7636 29.7886 10.923 27.292 11.7834L20.84 5.56394V5.56008Z" fill="#8B8585"/>
<path d="M22.1 23.135C21.88 24.6169 22.021 26.1277 22.5118 27.5479C23.0027 28.9681 23.83 30.2586 24.928 31.3171C26.0261 32.3756 27.3648 33.173 28.8381 33.6462C30.3114 34.1194 31.8787 34.2553 33.416 34.0432L22.096 23.135H22.1ZM41.9 25.865L30.584 14.9529C32.1212 14.7408 33.6886 14.8768 35.1619 15.35C36.6352 15.8231 37.9739 16.6206 39.0719 17.6791C40.17 18.7376 40.9973 20.028 41.4881 21.4482C41.979 22.8684 42.12 24.3793 41.9 25.8611V25.865ZM54.584 49L6.58398 2.72993L9.41598 0L57.416 46.2701L54.584 49Z" fill="#8B8585"/>
</svg>
