<svg width="43" height="38" viewBox="0 0 43 38" fill="none" xmlns="http://www.w3.org/2000/svg">
<path d="M13.9751 26.125C13.8145 26.125 13.654 26.151 13.5008 26.2059C12.63 26.5184 11.7142 26.7188 10.7501 26.7188C9.78597 26.7188 8.8702 26.5184 7.99878 26.2059C7.84559 26.151 7.68569 26.125 7.52511 26.125C3.35545 26.125 -0.0220633 29.8716 0.00010854 34.4835C0.00951479 36.4325 1.46009 38 3.22511 38H18.2751C20.0401 38 21.4907 36.4325 21.5001 34.4835C21.5223 29.8716 18.1448 26.125 13.9751 26.125ZM10.7501 23.75C14.3124 23.75 17.2001 20.5601 17.2001 16.625C17.2001 12.6899 14.3124 9.5 10.7501 9.5C7.18783 9.5 4.30011 12.6899 4.30011 16.625C4.30011 20.5601 7.18783 23.75 10.7501 23.75ZM39.7751 0H13.9751C12.1967 0 10.7501 1.65137 10.7501 3.68051V7.125C12.3236 7.125 13.7803 7.6282 15.0501 8.44609V4.75H38.7001V26.125H34.4001V21.375H25.8001V26.125H20.6777C21.961 27.3637 22.903 28.9995 23.3444 30.875H39.7751C41.5536 30.875 43.0001 29.2236 43.0001 27.1945V3.68051C43.0001 1.65137 41.5536 0 39.7751 0Z" fill="#8E8B8B"/>
</svg>
