<svg width="45" height="39" viewBox="0 0 45 39" fill="none" xmlns="http://www.w3.org/2000/svg">
<path d="M18.75 6.375C18.75 7.86684 18.0652 9.29758 16.8462 10.3525C15.6272 11.4074 13.9739 12 12.25 12C10.5261 12 8.87277 11.4074 7.65379 10.3525C6.4348 9.29758 5.74998 7.86684 5.74998 6.375C5.74998 4.88316 6.4348 3.45242 7.65379 2.39752C8.87277 1.34263 10.5261 0.75 12.25 0.75C13.9739 0.75 15.6272 1.34263 16.8462 2.39752C18.0652 3.45242 18.75 4.88316 18.75 6.375ZM31.75 15.75C33.1866 15.75 34.5643 15.2561 35.5801 14.3771C36.596 13.498 37.1666 12.3057 37.1666 11.0625C37.1666 9.8193 36.596 8.62701 35.5801 7.74794C34.5643 6.86886 33.1866 6.375 31.75 6.375C30.3134 6.375 28.9356 6.86886 27.9198 7.74794C26.904 8.62701 26.3333 9.8193 26.3333 11.0625C26.3333 12.3057 26.904 13.498 27.9198 14.3771C28.9356 15.2561 30.3134 15.75 31.75 15.75ZM25.0246 17.1562C25.172 17.6025 25.25 18.075 25.25 18.5625V24.1875C25.2501 24.7599 25.0989 25.3247 24.8078 25.8387C24.5167 26.3527 24.0936 26.8022 23.5707 27.1528C23.0478 27.5034 22.4392 27.7457 21.7914 27.8613C21.1435 27.9768 20.4737 27.9625 19.8333 27.8194V34.5C19.8332 35.2065 19.6025 35.8985 19.1678 36.4965C18.7331 37.0944 18.112 37.574 17.3761 37.8798C16.6403 38.1857 15.8195 38.3055 15.0084 38.2253C14.1973 38.1452 13.4289 37.8684 12.7916 37.4269C12.1544 37.8684 11.386 38.1452 10.5749 38.2253C9.76379 38.3055 8.94304 38.1857 8.20717 37.8798C7.4713 37.574 6.85023 37.0944 6.41551 36.4965C5.98078 35.8985 5.75008 35.2065 5.74998 34.5V27.8194C5.10955 27.9625 4.43976 27.9768 3.79194 27.8613C3.14412 27.7457 2.53546 27.5034 2.0126 27.1528C1.48974 26.8022 1.06655 26.3527 0.775475 25.8387C0.484395 25.3247 0.333145 24.7599 0.333313 24.1875V18.5625C0.333313 17.195 0.961064 15.8835 2.07847 14.9165C3.19587 13.9495 4.7114 13.4062 6.29165 13.4062H19.2916C20.5887 13.4061 21.8503 13.7723 22.885 14.4491C23.9197 15.1259 24.6709 16.0764 25.0246 17.1562ZM27.2541 17.1562H38.7916C40.3719 17.1562 41.8874 17.6995 43.0048 18.6665C44.1222 19.6335 44.75 20.945 44.75 22.3125V25.5938C44.7501 26.1661 44.5989 26.731 44.3078 27.245C44.0167 27.759 43.5936 28.2085 43.0707 28.559C42.5478 28.9096 41.9392 29.152 41.2914 29.2675C40.6435 29.3831 39.9737 29.3687 39.3333 29.2256V34.5C39.3332 35.2065 39.1025 35.8985 38.6678 36.4965C38.2331 37.0944 37.612 37.574 36.8761 37.8798C36.1403 38.1857 35.3195 38.3055 34.5084 38.2253C33.6973 38.1452 32.9289 37.8684 32.2916 37.4269C31.6544 37.8684 30.886 38.1452 30.0749 38.2253C29.2638 38.3055 28.443 38.1857 27.7072 37.8798C26.9713 37.574 26.3502 37.0944 25.9155 36.4965C25.4808 35.8985 25.2501 35.2065 25.25 34.5V28.38C26.5803 27.3487 27.4166 25.8525 27.4166 24.1875V18.5625C27.4166 18.0806 27.3603 17.61 27.2541 17.1562Z" fill="#8E8B8B"/>
</svg>
