<svg width="41" height="37" viewBox="0 0 41 37" fill="none" xmlns="http://www.w3.org/2000/svg">
<path d="M26.375 2.48438C24.459 2.48442 22.5688 2.86914 20.8507 3.60876C19.1325 4.34839 17.6326 5.42305 16.467 6.74955C15.3014 8.07604 14.5014 9.61876 14.129 11.2583C13.7566 12.8977 13.8218 14.59 14.3195 16.204L2.14062 26.8281V34.5156H10.9531V30.6719H15.3594V26.8281H19.7656L23.1437 23.8813C24.1983 24.1324 25.2822 24.2605 26.375 24.2656C29.6861 24.2656 32.8615 23.1182 35.2028 21.0758C37.5441 19.0334 38.8594 16.2634 38.8594 13.375C38.8594 10.4866 37.5441 7.71655 35.2028 5.67417C32.8615 3.63178 29.6861 2.48438 26.375 2.48438V2.48438Z" stroke="black" stroke-width="3" stroke-linecap="round" stroke-linejoin="round"/>
<path d="M28.5781 12.7344C29.3893 12.7344 30.0469 12.1607 30.0469 11.4531C30.0469 10.7455 29.3893 10.1719 28.5781 10.1719C27.767 10.1719 27.1094 10.7455 27.1094 11.4531C27.1094 12.1607 27.767 12.7344 28.5781 12.7344Z" fill="black" stroke="black" stroke-width="4" stroke-linecap="round" stroke-linejoin="round"/>
</svg>
