<svg width="39" height="38" viewBox="0 0 39 38" fill="none" xmlns="http://www.w3.org/2000/svg">
<g clip-path="url(#clip0_3_475)">
<path d="M30.4941 16.625C31.2897 16.8229 32.0472 17.0915 32.7666 17.4308C33.486 17.7701 34.2393 18.2861 35.0264 18.9788C35.8135 19.6715 36.4863 20.4879 37.0449 21.428C37.6035 22.3681 38.069 23.5839 38.4414 25.0753C38.8138 26.5668 39 28.2385 39 30.0904C39 32.2675 38.1536 34.13 36.4609 35.678C34.7682 37.226 32.7285 38 30.3418 38H8.6582C6.27148 38 4.23177 37.226 2.53906 35.678C0.846354 34.13 0 32.2675 0 30.0904C0 28.2385 0.186198 26.5668 0.558594 25.0753C0.93099 23.5839 1.39648 22.3681 1.95508 21.428C2.51367 20.4879 3.18652 19.6715 3.97363 18.9788C4.76074 18.2861 5.514 17.7701 6.2334 17.4308C6.9528 17.0915 7.71029 16.8229 8.50586 16.625C7.16862 14.8579 6.5 12.9353 6.5 10.8571C6.5 9.3869 6.84277 7.98382 7.52832 6.64788C8.21387 5.31194 9.14062 4.15625 10.3086 3.1808C11.4766 2.20536 12.8604 1.43136 14.46 0.858817C16.0596 0.286272 17.7396 0 19.5 0C21.2604 0 22.9404 0.286272 24.54 0.858817C26.1396 1.43136 27.5234 2.20536 28.6914 3.1808C29.8594 4.15625 30.7861 5.31194 31.4717 6.64788C32.1572 7.98382 32.5 9.3869 32.5 10.8571C32.5 12.9353 31.8314 14.8579 30.4941 16.625ZM19.5 2.71429C16.8086 2.71429 14.5107 3.50949 12.6064 5.09989C10.7021 6.69029 9.75 8.60938 9.75 10.8571C9.75 13.1049 10.7021 15.024 12.6064 16.6144C14.5107 18.2048 16.8086 19 19.5 19C22.1914 19 24.4893 18.2048 26.3936 16.6144C28.2979 15.024 29.25 13.1049 29.25 10.8571C29.25 8.60938 28.2979 6.69029 26.3936 5.09989C24.4893 3.50949 22.1914 2.71429 19.5 2.71429ZM30.3418 35.2857C31.8314 35.2857 33.1051 34.7803 34.1631 33.7695C35.221 32.7587 35.75 31.5324 35.75 30.0904C35.75 26.7117 35.0856 24.0469 33.7568 22.096C32.4281 20.1451 30.5195 19.1202 28.0312 19.0212C25.5768 20.8166 22.7331 21.7143 19.5 21.7143C16.2669 21.7143 13.4232 20.8166 10.9688 19.0212C8.48047 19.1202 6.57194 20.1451 5.24316 22.096C3.91439 24.0469 3.25 26.7117 3.25 30.0904C3.25 31.5324 3.77897 32.7587 4.83691 33.7695C5.89486 34.7803 7.16862 35.2857 8.6582 35.2857H30.3418Z" fill="black"/>
</g>
<defs>
<clipPath id="clip0_3_475">
<rect width="39" height="38" fill="white"/>
</clipPath>
</defs>
</svg>
