<svg width="634" height="544" viewBox="0 0 634 544" fill="none" xmlns="http://www.w3.org/2000/svg">
<path d="M441.166 282L432.709 341.094L386 412.067L408.388 421.989L442.463 428.738L479.445 429.454L501 422.891L474.523 346.023L482.225 285.931L441.166 282Z" fill="#EFEFEF"/>
<path d="M441.166 282L432.709 341.094L386 412.067L408.388 421.989L442.463 428.738L479.445 429.454L501 422.891L474.523 346.023L482.225 285.931L441.166 282Z" stroke="#999999" stroke-width="4" stroke-miterlimit="10" stroke-linejoin="round"/>
<path d="M441.709 362.119L425.426 354.725L386 412.153L408.314 422.082L442.276 428.835L479.137 429.552L500.62 422.985L477.378 359.052L464.514 363.906L441.709 362.119Z" fill="#29D726"/>
<path d="M440.984 282L432.555 341.133L386 412.153L408.314 422.082L442.276 428.835L479.137 429.552L500.62 422.985L474.23 346.066L481.908 285.934L440.984 282Z" stroke="#666666" stroke-width="4" stroke-miterlimit="10" stroke-linejoin="round"/>
<path d="M437.013 347.248C438.702 342.743 444.072 340.271 449.007 341.727C451.377 342.426 453.327 343.957 454.429 345.981C455.531 348.005 455.695 350.358 454.883 352.521C453.194 357.027 447.823 359.499 442.889 358.042C437.954 356.586 435.323 351.754 437.013 347.248Z" fill="#29D726"/>
<path d="M456.884 327.856C458.211 324.317 462.419 322.372 466.283 323.513C468.139 324.06 469.665 325.26 470.526 326.849C471.388 328.438 471.514 330.285 470.876 331.985C469.549 335.524 465.341 337.468 461.477 336.328C457.613 335.188 455.557 331.395 456.884 327.856Z" fill="#29D726"/>
<path d="M447.369 300.29C448.425 297.472 451.746 295.915 454.785 296.812C456.244 297.242 457.442 298.193 458.115 299.454C458.788 300.715 458.881 302.184 458.374 303.537C457.317 306.355 453.997 307.912 450.958 307.015C447.919 306.118 446.312 303.107 447.369 300.29Z" fill="#29D726"/>
<path d="M627.54 264.838C617.988 269.301 574.612 273.687 570.228 291.62C565.844 309.552 609.463 354.183 601.237 372.431C593.01 390.68 529.689 386.167 520.872 401.109C512.055 416.051 543.755 451.922 548.332 462.085" stroke="#104990" stroke-width="4" stroke-miterlimit="10" stroke-linejoin="round"/>
<path d="M610.12 259C613.163 267.144 639.809 291.527 628.376 307.864C616.943 324.201 550.488 338.015 541.522 357.022C532.555 376.03 579.664 405.426 574.577 421.91C569.49 438.394 521.596 450.258 511 455.928" stroke="#104990" stroke-width="4" stroke-miterlimit="10" stroke-linejoin="round"/>
<path d="M586.854 278.03L629.2 287.59" stroke="#104990" stroke-width="2" stroke-miterlimit="10" stroke-linejoin="round"/>
<path d="M571.747 287.289L632 299.541" stroke="#104990" stroke-width="2" stroke-miterlimit="10" stroke-linejoin="round"/>
<path d="M576.74 310.83L612.952 318.948" stroke="#104990" stroke-width="2" stroke-miterlimit="10" stroke-linejoin="round"/>
<path d="M566.677 339.348L597.836 351.535" stroke="#104990" stroke-width="2" stroke-miterlimit="10" stroke-linejoin="round"/>
<path d="M553.938 347.09L601.501 367.092" stroke="#104990" stroke-width="2" stroke-miterlimit="10" stroke-linejoin="round"/>
<path d="M540.735 357.437L594.328 379.459" stroke="#104990" stroke-width="2" stroke-miterlimit="10" stroke-linejoin="round"/>
<path d="M543.435 370.18L574.22 384.465" stroke="#104990" stroke-width="2" stroke-miterlimit="10" stroke-linejoin="round"/>
<path d="M524.293 397.872L566.712 402.614" stroke="#104990" stroke-width="2" stroke-miterlimit="10" stroke-linejoin="round"/>
<path d="M519.287 409.989L573.962 417.689" stroke="#104990" stroke-width="2" stroke-miterlimit="10" stroke-linejoin="round"/>
<path d="M523.555 421.891L570.084 427.846" stroke="#104990" stroke-width="2" stroke-miterlimit="10" stroke-linejoin="round"/>
<path d="M529.804 434.63L559.864 436.995" stroke="#104990" stroke-width="2" stroke-miterlimit="10" stroke-linejoin="round"/>
<path d="M572.472 298.928L627.267 310.359" stroke="#104990" stroke-width="2" stroke-miterlimit="10" stroke-linejoin="round"/>
<path d="M174 19H295V198.543H174V19Z" fill="#434343"/>
<path d="M174 19H295V198.543H174V19Z" stroke="black" stroke-width="2" stroke-miterlimit="10" stroke-linejoin="round"/>
<path d="M185.986 29.2106H284.202V102.5H185.986V29.2106Z" fill="#CCCCCC"/>
<path d="M185.986 29.2106H284.202V102.5H185.986V29.2106Z" stroke="black" stroke-width="2" stroke-miterlimit="10" stroke-linejoin="round"/>
<path d="M188.427 123.884H201.769V134.564H188.427V123.884Z" fill="black"/>
<path d="M208.272 123.884H221.615V134.564H208.272V123.884Z" fill="black"/>
<path d="M228.118 123.884H241.46V134.564H228.118V123.884Z" fill="black"/>
<path d="M247.963 123.884H261.306V134.564H247.963V123.884Z" fill="black"/>
<path d="M267.809 123.884H281.151V134.564H267.809V123.884Z" fill="black"/>
<path d="M267.809 107.852H281.151V118.532H267.809V107.852Z" fill="#F1C232"/>
<path d="M248.043 107.852H261.386V118.532H248.043V107.852Z" fill="black"/>
<path d="M188.136 141.644H201.478V152.324H188.136V141.644Z" fill="black"/>
<path d="M207.981 141.644H221.324V152.324H207.981V141.644Z" fill="black"/>
<path d="M227.827 141.644H241.169V152.324H227.827V141.644Z" fill="black"/>
<path d="M247.672 141.644H261.015V152.324H247.672V141.644Z" fill="black"/>
<path d="M267.518 141.644H280.861V152.324H267.518V141.644Z" fill="black"/>
<path d="M188.427 160.308H201.769V170.988H188.427V160.308Z" fill="black"/>
<path d="M208.272 160.308H221.615V170.988H208.272V160.308Z" fill="black"/>
<path d="M228.118 160.308H241.46V170.988H228.118V160.308Z" fill="black"/>
<path d="M247.963 160.308H261.306V170.988H247.963V160.308Z" fill="black"/>
<path d="M267.809 160.308H281.151V170.988H267.809V160.308Z" fill="black"/>
<path d="M188.138 177.166H201.48V187.846H188.138V177.166Z" fill="#6AA84F"/>
<path d="M207.983 177.166H221.326V187.846H207.983V177.166Z" fill="#3D85C6"/>
<path d="M227.829 177.166H241.171V187.846H227.829V177.166Z" fill="black"/>
<path d="M247.674 177.166H261.017V187.846H247.674V177.166Z" fill="black"/>
<path d="M267.52 177.166H280.863V187.846H267.52V177.166Z" fill="black"/>
<path d="M185.44 89.6084H283.56" stroke="black" stroke-width="2" stroke-miterlimit="10" stroke-linejoin="round"/>
<path d="M209.356 30.4299L209.595 102.373" stroke="black" stroke-width="2" stroke-miterlimit="10" stroke-linejoin="round"/>
<path d="M185.966 62.712C186.791 64.5422 188.52 70.1445 190.915 73.6934C193.311 77.2423 196.598 81.4652 200.34 84.0056C204.083 86.546 207.848 88.3003 213.37 88.9357C218.892 89.571 226.698 89.4613 233.472 87.8179C240.247 86.1745 248.923 82.326 254.016 79.0755C259.11 75.825 261.612 72.8729 264.032 68.3148C266.451 63.7567 267.646 56.5841 268.535 51.727C269.424 46.87 269.228 42.7218 269.366 39.1723C269.505 35.6228 269.366 31.887 269.366 30.4299" stroke="black" stroke-width="2" stroke-miterlimit="10" stroke-linejoin="round"/>
<path d="M123.414 355.054C123.414 364.04 114.703 371.325 103.957 371.325H83.1095C77.949 371.325 73 369.611 69.351 366.56C65.702 363.508 63.652 359.369 63.652 355.054V333.446C63.652 324.459 72.3634 317.175 83.1095 317.175H103.957C114.703 317.175 123.414 324.459 123.414 333.446V355.054Z" fill="#FF8CA6"/>
<path d="M63.66 82.0337H81.9487V327.297H63.66V82.0337Z" fill="#CDA916"/>
<path d="M79.3785 83.2122H105.252V328.475H79.3785V83.2122Z" fill="#F1C71A"/>
<path d="M105.114 82.0337H123.402V327.297H105.114V82.0337Z" fill="#FFD732"/>
<path d="M63 82.0337L91.1914 27L123.482 82.0337H63Z" fill="#F3D79F"/>
<path d="M63.66 89.5301C64.1845 90.1361 64.8854 84.252 67.5768 84.3953C70.2681 84.5386 76.2635 90.4611 79.8081 90.3898C83.3527 90.3184 86.0086 85.3225 88.8443 83.9671C91.68 82.6118 93.7205 80.9025 96.8221 82.2578C99.9237 83.6131 104.441 91.5288 107.454 92.0991C110.467 92.6694 112.24 86.4643 114.898 85.6798C117.557 84.8954 122.618 88.7479 123.405 87.3925C124.193 86.0372 122.993 79.6882 119.625 77.5479C116.258 75.4076 110.457 74.1939 103.2 74.5507C95.9435 74.9075 82.5456 78.654 76.0838 79.6887C69.622 80.7235 66.5004 79.119 64.4297 80.7592C62.3591 82.3994 63.1355 88.924 63.66 89.5301Z" fill="#F3D79F"/>
<path d="M82.4727 44.5417L91.4224 27L101.673 44.5417H82.4727Z" fill="black"/>
<path d="M63.652 324.343H123.414V341.885H63.652V324.343Z" fill="#B7B7B7"/>
<path d="M63.652 337.051H123.414" stroke="#666666" stroke-width="2" stroke-miterlimit="10" stroke-linejoin="round"/>
<path d="M63.652 329.324H123.414" stroke="#666666" stroke-width="2" stroke-miterlimit="10" stroke-linejoin="round"/>
<path d="M131 328.176L334.823 286.199L386.294 505.546L182.471 547.523L131 328.176Z" fill="#EBF3BB"/>
<path d="M263.302 315.334C263.675 314.073 264.272 313.315 265.094 313.062C265.931 312.792 266.901 312.618 268.004 312.54C269.667 312.423 271.587 313.335 273.766 315.275C275.96 317.214 278.228 319.855 280.57 323.199C282.927 326.528 285.325 330.38 287.765 334.757C290.22 339.117 292.602 343.641 294.912 348.328C297.222 353 299.403 357.674 301.456 362.349C303.508 367.009 305.301 371.296 306.837 375.209C308.387 379.106 309.593 382.508 310.454 385.414C311.331 388.305 311.795 390.298 311.848 391.393C311.9 392.489 311.671 393.552 311.159 394.582C310.663 395.611 309.727 396.174 308.352 396.271C307.473 396.333 306.71 396.131 306.062 395.664C305.414 395.198 304.856 394.605 304.388 393.885C303.92 393.15 303.484 392.42 303.08 391.695C302.677 390.97 302.317 390.34 302.003 389.805C301.679 389.075 301.003 387.684 299.974 385.633C298.961 383.566 297.903 381.404 296.8 379.147C295.713 376.889 294.681 374.763 293.703 372.768C292.741 370.773 292.055 369.345 291.645 368.485C286.506 368.019 281.345 367.607 276.163 367.249C270.981 366.892 265.528 366.575 259.805 366.301L258.606 366.386C256.493 377.183 254.578 385.738 252.86 392.049C251.157 398.344 249.688 402.846 248.455 405.554C247.237 408.245 246.233 409.393 245.444 408.997C244.656 408.615 244.069 407.083 243.684 404.399C243.298 401.7 243.164 398.079 243.283 393.537C243.402 388.995 243.787 383.975 244.437 378.477C245.087 372.964 245.924 367.182 246.949 361.13C247.974 355.078 249.281 349.217 250.869 343.548C252.473 337.862 254.304 332.559 256.362 327.639C258.435 322.704 260.748 318.602 263.302 315.334ZM262.4 351.682C262.521 354.218 263.482 356.026 265.282 357.104C267.098 358.181 269.254 358.805 271.748 358.975C274.258 359.13 276.878 359.081 279.609 358.828C282.339 358.56 284.687 358.357 286.653 358.218C286.522 355.486 285.9 352.563 284.789 349.448C283.692 346.318 282.341 343.235 280.736 340.2C279.13 337.15 277.432 334.197 275.643 331.341C273.853 328.47 272.213 325.882 270.723 323.577C269.96 324.384 269.171 325.833 268.357 327.924C267.543 329.999 266.732 332.323 265.925 334.895C265.133 337.451 264.427 339.956 263.807 342.41C263.203 344.862 262.753 346.852 262.458 348.379C262.468 348.589 262.453 349.125 262.414 349.986C262.392 350.846 262.387 351.411 262.4 351.682ZM318.221 373.322C317.934 373.342 317.479 373.065 316.858 372.492C316.252 371.902 315.87 371.447 315.71 371.127C315.626 371.057 315.58 370.917 315.57 370.707C315.499 370.577 315.459 370.414 315.45 370.219C315.436 369.934 315.457 369.691 315.511 369.491C315.505 369.356 315.538 369.211 315.611 369.055C315.879 368.63 316.288 368.126 316.837 367.545C317.402 366.948 317.757 366.645 317.901 366.635L341.328 364.983C341.589 361.395 342.012 357.675 342.597 353.824C343.181 349.957 343.932 346.206 344.848 342.572L346.167 342.479L347.366 342.394C347.676 342.508 348.085 342.668 348.592 342.873C349.115 343.077 349.637 343.266 350.159 343.44C350.681 343.614 351.131 343.808 351.51 344.023C351.889 344.222 352.08 344.359 352.083 344.434L353.07 364.992C354.317 364.904 355.874 364.606 357.743 364.097C359.626 363.573 361.455 363.233 363.228 363.078C365.017 362.922 366.542 363.123 367.804 363.682C369.082 364.24 369.77 365.547 369.869 367.603C369.925 368.774 369.552 369.696 368.75 370.371C367.949 371.045 366.932 371.583 365.7 371.986C364.468 372.374 363.158 372.67 361.773 372.873C360.403 373.075 359.084 373.341 357.817 373.672C356.55 374.002 355.529 374.45 354.754 375.017C353.979 375.584 353.615 376.347 353.661 377.308C353.74 378.959 354.198 380.478 355.034 381.865C355.87 383.237 356.777 384.582 357.754 385.899C358.731 387.2 359.613 388.546 360.402 389.937C361.206 391.311 361.647 392.824 361.726 394.475C361.874 397.552 360.309 399.206 357.032 399.437C355.498 399.545 354.086 399.216 352.798 398.448C351.526 397.679 350.36 396.609 349.3 395.238C348.256 393.865 347.307 392.321 346.455 390.603C345.602 388.871 344.852 387.117 344.205 385.34C343.575 383.562 343.076 381.85 342.708 380.204C342.34 378.543 342.055 377.132 341.855 375.971L318.221 373.322Z" fill="#CC0000"/>
<path d="M148.897 343.26L191.637 334.458" stroke="black" stroke-width="2" stroke-miterlimit="10" stroke-linejoin="round"/>
<path d="M153.023 360.846L172.957 356.74" stroke="black" stroke-width="2" stroke-miterlimit="10" stroke-linejoin="round"/>
<path d="M156.293 374.779L204.78 364.793" stroke="black" stroke-width="2" stroke-miterlimit="10" stroke-linejoin="round"/>
<path d="M169.959 410.723L312.546 381.357" stroke="black" stroke-width="2" stroke-miterlimit="10" stroke-linejoin="round"/>
<path d="M174.68 427.532L331.454 395.245" stroke="black" stroke-width="2" stroke-miterlimit="10" stroke-linejoin="round"/>
<path d="M178.035 445.27L330.588 413.852" stroke="black" stroke-width="2" stroke-miterlimit="10" stroke-linejoin="round"/>
<path d="M184.525 463.302L333.055 433.993" stroke="black" stroke-width="2" stroke-miterlimit="10" stroke-linejoin="round"/>
<path d="M186.4 483.893L346.046 451.014" stroke="black" stroke-width="2" stroke-miterlimit="10" stroke-linejoin="round"/>
<path d="M193.122 499.936L341.652 470.628" stroke="black" stroke-width="2" stroke-miterlimit="10" stroke-linejoin="round"/>
<path d="M194.49 518.37L354.137 485.491" stroke="black" stroke-width="2" stroke-miterlimit="10" stroke-linejoin="round"/>
<path d="M431.156 183.256C427.207 171.117 433.701 157.975 445.661 153.903C451.404 151.947 457.665 152.387 463.067 155.126C468.469 157.865 472.569 162.679 474.465 168.508C478.414 180.647 471.92 193.788 459.96 197.861C448.001 201.933 435.105 195.394 431.156 183.256Z" fill="#D73283"/>
<path d="M555.535 145.069C551.586 132.93 558.08 119.788 570.04 115.716C575.783 113.76 582.044 114.2 587.446 116.939C592.848 119.678 596.948 124.492 598.844 130.321C602.793 142.46 596.299 155.601 584.339 159.674C572.379 163.746 559.483 157.207 555.535 145.069V145.069Z" fill="#D73283"/>
<path d="M532.94 145.588L565.608 141.649" stroke="#434343" stroke-width="12" stroke-miterlimit="10" stroke-linecap="round" stroke-linejoin="round"/>
<path d="M463.489 171.363L483.164 162.724" stroke="#434343" stroke-width="12" stroke-miterlimit="10" stroke-linecap="round" stroke-linejoin="round"/>
<path d="M498.497 98.1618L510.706 135.92" stroke="#434343" stroke-width="12" stroke-miterlimit="10" stroke-linecap="round" stroke-linejoin="round"/>
<path d="M483.164 162.724C477.543 145.443 486.596 126.8 503.384 121.083C511.446 118.338 520.251 119.002 527.86 122.928C535.47 126.855 541.261 133.723 543.961 142.022C549.582 159.303 540.529 177.946 523.741 183.663C506.953 189.379 488.786 180.005 483.164 162.724Z" fill="#D73283"/>
<path d="M469.692 83.5567C465.744 71.4181 472.238 58.2764 484.198 54.204C489.941 52.2483 496.202 52.6884 501.604 55.4274C507.006 58.1664 511.106 62.9799 513.002 68.8091C516.951 80.9477 510.456 94.0894 498.497 98.1618C486.537 102.234 473.641 95.6954 469.692 83.5567Z" fill="#D73283"/>
<path d="M530.116 169.523L558.869 197.074" stroke="#434343" stroke-width="12" stroke-miterlimit="10" stroke-linecap="round" stroke-linejoin="round"/>
<path d="M542.091 213.753C537.598 199.939 544.988 184.984 558.598 180.35C565.133 178.124 572.258 178.625 578.406 181.742C584.553 184.859 589.219 190.337 591.376 196.97C595.87 210.784 588.48 225.739 574.87 230.373C561.26 235.007 546.584 227.566 542.091 213.753Z" fill="#D73283"/>
<path d="M62.398 541.687C53.5265 543.067 46.4208 510.815 46.5271 469.651C46.6333 428.486 53.9112 393.997 62.7827 392.617C71.6541 391.237 78.7598 423.489 78.6536 464.653C78.5473 505.818 71.2695 540.307 62.398 541.687L62.398 541.687Z" stroke="#62755B" stroke-width="3" stroke-miterlimit="10" stroke-linejoin="round"/>
<path d="M7.28283 519.003C2.16467 511.846 22.7828 482.87 53.3346 454.283C83.8865 425.697 112.803 408.325 117.921 415.482C123.039 422.639 102.421 451.615 71.8692 480.202C41.3173 508.788 12.401 526.16 7.28283 519.003V519.003Z" stroke="#62755B" stroke-width="3" stroke-miterlimit="10" stroke-linejoin="round"/>
<path d="M117.474 502.171C112.277 510.907 83.4935 502.348 53.1834 483.054C22.8734 463.761 2.5149 441.038 7.71154 432.303C12.9082 423.567 41.692 432.126 72.0021 451.419C102.312 470.713 122.671 493.435 117.474 502.171V502.171Z" stroke="#62755B" stroke-width="3" stroke-miterlimit="10" stroke-linejoin="round"/>
<path d="M59.3853 478.547C56.1582 479.049 53.55 476.582 53.5597 473.036C53.5643 471.334 54.1844 469.605 55.2834 468.23C56.3825 466.856 57.8706 465.948 59.4203 465.707C62.6473 465.205 65.2556 467.673 65.2459 471.218C65.2362 474.764 62.6124 478.045 59.3853 478.547Z" fill="#62755B"/>
<path d="M59.3853 478.547C56.1582 479.049 53.55 476.582 53.5597 473.036C53.5643 471.334 54.1844 469.605 55.2834 468.23C56.3825 466.856 57.8706 465.948 59.4203 465.707C62.6473 465.205 65.2556 467.673 65.2459 471.218C65.2362 474.764 62.6124 478.045 59.3853 478.547V478.547Z" stroke="#62755B" stroke-miterlimit="10" stroke-linejoin="round"/>
<path d="M65.3732 473.227C62.1461 473.729 59.5379 471.261 59.5475 467.716C59.5522 466.013 60.1722 464.284 61.2713 462.91C62.3704 461.535 63.8584 460.628 65.4081 460.387C68.6352 459.885 71.2434 462.352 71.2338 465.898C71.2241 469.443 68.6002 472.725 65.3732 473.227Z" fill="#62755B"/>
<path d="M65.3732 473.227C62.1461 473.729 59.5379 471.261 59.5475 467.716C59.5522 466.013 60.1722 464.284 61.2713 462.91C62.3704 461.535 63.8584 460.628 65.4081 460.387C68.6352 459.885 71.2434 462.352 71.2337 465.898C71.2241 469.443 68.6002 472.725 65.3732 473.227V473.227Z" stroke="#62755B" stroke-miterlimit="10" stroke-linejoin="round"/>
<path d="M59.4098 469.548C56.1828 470.05 53.5745 467.582 53.5842 464.037C53.5888 462.334 54.2089 460.605 55.308 459.231C56.407 457.856 57.8951 456.949 59.4448 456.708C62.6719 456.206 65.2801 458.673 65.2704 462.219C65.2608 465.764 62.6369 469.046 59.4098 469.548Z" fill="#62755B"/>
<path d="M59.4098 469.548C56.1828 470.05 53.5745 467.582 53.5842 464.037C53.5888 462.334 54.2089 460.605 55.308 459.231C56.407 457.856 57.8951 456.949 59.4448 456.708C62.6719 456.206 65.2801 458.673 65.2704 462.219C65.2608 465.764 62.6369 469.046 59.4098 469.548V469.548Z" stroke="#62755B" stroke-miterlimit="10" stroke-linejoin="round"/>
<path d="M17.9696 458.477C15.5523 458.853 13.5984 457.043 13.6055 454.434C13.6089 453.181 14.0733 451.907 14.8966 450.894C15.7198 449.88 16.8345 449.209 17.9953 449.028C20.4127 448.652 22.3666 450.463 22.3595 453.072C22.3524 455.681 20.387 458.101 17.9696 458.477Z" fill="#62755B"/>
<path d="M17.9696 458.477C15.5523 458.853 13.5984 457.043 13.6055 454.434C13.6089 453.181 14.0733 451.907 14.8966 450.894C15.7198 449.88 16.8345 449.209 17.9953 449.028C20.4127 448.652 22.3666 450.463 22.3595 453.072C22.3524 455.681 20.387 458.101 17.9696 458.477V458.477Z" stroke="#62755B" stroke-width="3" stroke-miterlimit="10" stroke-linejoin="round"/>
<path d="M74.7958 520.122C72.3785 520.498 70.4246 518.688 70.4317 516.078C70.4351 514.825 70.8995 513.552 71.7228 512.538C72.5461 511.525 73.6607 510.854 74.8216 510.673C77.2389 510.297 79.1928 512.107 79.1857 514.717C79.1786 517.326 77.2132 519.746 74.7958 520.122Z" fill="#62755B"/>
<path d="M74.7958 520.122C72.3785 520.498 70.4246 518.688 70.4317 516.078C70.4351 514.825 70.8995 513.552 71.7228 512.538C72.5461 511.525 73.6607 510.854 74.8216 510.673C77.2389 510.297 79.1928 512.107 79.1857 514.717C79.1786 517.326 77.2132 519.746 74.7958 520.122V520.122Z" stroke="#62755B" stroke-width="3" stroke-miterlimit="10" stroke-linejoin="round"/>
<path d="M95.7545 426.002C93.3372 426.378 91.3833 424.567 91.3904 421.958C91.3938 420.705 91.8582 419.432 92.6815 418.418C93.5047 417.404 94.6194 416.733 95.7802 416.553C98.1976 416.177 100.152 417.987 100.144 420.596C100.137 423.206 98.1719 425.626 95.7545 426.002Z" fill="#62755B"/>
<path d="M95.7545 426.002C93.3372 426.378 91.3833 424.567 91.3904 421.958C91.3938 420.705 91.8582 419.432 92.6815 418.418C93.5047 417.404 94.6194 416.733 95.7802 416.553C98.1976 416.177 100.152 417.987 100.144 420.596C100.137 423.206 98.1719 425.626 95.7545 426.002V426.002Z" stroke="#62755B" stroke-width="3" stroke-miterlimit="10" stroke-linejoin="round"/>
<path d="M416.016 4.11872C408.632 8.00167 372.711 15.1802 371.712 27.4164C370.714 39.6527 414.216 64.7119 410.025 77.5362C405.833 90.3605 351.752 93.6554 346.564 104.362C341.377 115.069 373.51 135.542 378.899 141.778" stroke="black" stroke-width="4" stroke-miterlimit="10" stroke-linejoin="round"/>
<path d="M400.447 2C404.238 7.05911 430.38 20.4708 423.196 32.3546C416.013 44.2385 362.047 59.9054 357.345 73.3029C352.644 86.7003 396.797 101.387 394.987 112.739C393.178 124.092 354.572 136.64 346.488 141.42" stroke="black" stroke-width="4" stroke-miterlimit="10" stroke-linejoin="round"/>
<path d="M383.688 16.8269L420.84 18.9293" stroke="black" stroke-width="2" stroke-miterlimit="10" stroke-linejoin="round"/>
<path d="M372.341 24.4156L425 26.518" stroke="black" stroke-width="2" stroke-miterlimit="10" stroke-linejoin="round"/>
<path d="M380.095 39.4157L411.856 41.1758" stroke="black" stroke-width="2" stroke-miterlimit="10" stroke-linejoin="round"/>
<path d="M375.9 59.1808L404.012 64.1191" stroke="black" stroke-width="2" stroke-miterlimit="10" stroke-linejoin="round"/>
<path d="M366.322 65.537L409.444 73.9955" stroke="black" stroke-width="2" stroke-miterlimit="10" stroke-linejoin="round"/>
<path d="M356.744 73.6533L405.256 82.8452" stroke="black" stroke-width="2" stroke-miterlimit="10" stroke-linejoin="round"/>
<path d="M360.939 81.7736L389.051 88.1298" stroke="black" stroke-width="2" stroke-miterlimit="10" stroke-linejoin="round"/>
<path d="M348.962 101.893L385.45 100.818" stroke="black" stroke-width="2" stroke-miterlimit="10" stroke-linejoin="round"/>
<path d="M346.565 110.364L393.833 110.022" stroke="black" stroke-width="2" stroke-miterlimit="10" stroke-linejoin="round"/>
<path d="M351.955 117.775L392.092 117.091" stroke="black" stroke-width="2" stroke-miterlimit="10" stroke-linejoin="round"/>
<path d="M359.142 125.541L384.849 124.123" stroke="black" stroke-width="2" stroke-miterlimit="10" stroke-linejoin="round"/>
<path d="M374.705 32.0042L422.637 34.1067" stroke="black" stroke-width="2" stroke-miterlimit="10" stroke-linejoin="round"/>
<path d="M311 217.671C311 210.91 337.074 205.425 369.237 205.42C401.4 205.416 427.474 210.893 427.474 217.655C427.474 224.416 401.4 229.901 369.237 229.905C337.074 229.91 311 224.432 311 217.671Z" stroke="black" stroke-width="2" stroke-miterlimit="10" stroke-linejoin="round"/>
<path d="M335.432 175.6C341.649 171.683 361.791 187.344 380.421 210.579C399.051 233.815 409.114 255.826 402.897 259.743C396.681 263.661 376.539 248 357.909 224.765C339.279 201.529 329.216 179.518 335.432 175.6V175.6Z" stroke="black" stroke-width="2" stroke-miterlimit="10" stroke-linejoin="round"/>
<path d="M335.191 259.583C328.995 255.639 339.185 233.674 357.951 210.524C376.717 187.373 396.953 171.803 403.15 175.747C409.346 179.691 399.157 201.656 380.39 224.806C361.624 247.957 341.388 263.527 335.191 259.583V259.583Z" stroke="black" stroke-width="2" stroke-miterlimit="10" stroke-linejoin="round"/>
<path d="M360.72 215.243C360.72 212.783 362.966 210.79 365.736 210.79C367.066 210.79 368.342 211.259 369.283 212.094C370.223 212.929 370.752 214.062 370.752 215.243C370.752 217.702 368.506 219.696 365.736 219.696C362.966 219.696 360.72 217.702 360.72 215.243Z" fill="black"/>
<path d="M364.151 219.797C364.151 217.338 366.396 215.344 369.167 215.344C370.497 215.344 371.773 215.813 372.713 216.648C373.654 217.484 374.183 218.616 374.183 219.797C374.183 222.257 371.937 224.251 369.167 224.251C366.396 224.251 364.151 222.257 364.151 219.797Z" fill="black"/>
<path d="M367.751 215.243C367.751 212.783 369.997 210.79 372.767 210.79C374.098 210.79 375.373 211.259 376.314 212.094C377.255 212.929 377.783 214.062 377.783 215.243C377.783 217.702 375.537 219.696 372.767 219.696C369.997 219.696 367.751 217.702 367.751 215.243Z" fill="black"/>
<path d="M381.443 183.623C381.443 181.781 383.096 180.287 385.134 180.287C386.113 180.287 387.052 180.639 387.745 181.264C388.437 181.89 388.826 182.738 388.826 183.623C388.826 185.466 387.173 186.959 385.134 186.959C383.096 186.959 381.443 185.466 381.443 183.623Z" fill="black"/>
<path d="M326.349 227.079C326.349 225.237 328.002 223.743 330.04 223.743C331.019 223.743 331.958 224.095 332.65 224.72C333.343 225.346 333.732 226.194 333.732 227.079C333.732 228.922 332.079 230.415 330.04 230.415C328.002 230.415 326.349 228.922 326.349 227.079Z" fill="black"/>
</svg>
