<svg width="64" height="41" viewBox="0 0 64 41" fill="none" xmlns="http://www.w3.org/2000/svg">
<path d="M42 20.2812C42 22.7262 40.9464 25.071 39.0711 26.7999C37.1957 28.5287 34.6522 29.5 32 29.5C29.3478 29.5 26.8043 28.5287 24.9289 26.7999C23.0536 25.071 22 22.7262 22 20.2812C22 17.8363 23.0536 15.4915 24.9289 13.7626C26.8043 12.0338 29.3478 11.0625 32 11.0625C34.6522 11.0625 37.1957 12.0338 39.0711 13.7626C40.9464 15.4915 42 17.8363 42 20.2812Z" fill="#323131"/>
<path d="M0 20.2812C0 20.2812 12 0 32 0C52 0 64 20.2812 64 20.2812C64 20.2812 52 40.5625 32 40.5625C12 40.5625 0 20.2812 0 20.2812ZM32 33.1875C35.713 33.1875 39.274 31.8277 41.8995 29.4073C44.525 26.987 46 23.7042 46 20.2812C46 16.8583 44.525 13.5755 41.8995 11.1552C39.274 8.73476 35.713 7.375 32 7.375C28.287 7.375 24.726 8.73476 22.1005 11.1552C19.475 13.5755 18 16.8583 18 20.2812C18 23.7042 19.475 26.987 22.1005 29.4073C24.726 31.8277 28.287 33.1875 32 33.1875Z" fill="#323131"/>
</svg>
