<svg width="42" height="41" viewBox="0 0 42 41" fill="none" xmlns="http://www.w3.org/2000/svg">
<path d="M39.7125 7.06805L21.7125 0.943052C21.2494 0.789491 20.7506 0.789491 20.2875 0.943052L2.325 7.04891H2.2875L2.19375 7.08719L2.08125 7.14461L1.95 7.20204L1.875 7.24032L1.7625 7.31688L1.70625 7.35516L1.59375 7.43172C1.59375 7.44188 1.5898 7.45161 1.58277 7.45879C1.57573 7.46597 1.56619 7.47001 1.55625 7.47001L1.425 7.58485C1.425 7.58992 1.42302 7.59479 1.41951 7.59838C1.41599 7.60197 1.41122 7.60399 1.40625 7.60399L1.275 7.75711L1.2375 7.81454C1.21792 7.82737 1.20115 7.84419 1.18824 7.86395C1.17533 7.88372 1.16657 7.90599 1.1625 7.92938L1.10625 7.9868L1.05 8.08251C1.03125 8.12079 1.0125 8.13993 1.0125 8.15907L0.956249 8.27391L0.918749 8.35047L0.862499 8.52274C0.849803 8.54615 0.843338 8.57255 0.843749 8.5993C0.822906 8.64108 0.810172 8.68657 0.806249 8.73329C0.806249 8.75243 0.787499 8.79071 0.787499 8.80985C0.787499 8.82899 0.768749 8.90555 0.768749 8.94383V9.0204C0.751459 9.0956 0.745141 9.173 0.749999 9.25008V24.5626C0.749999 25.1718 0.987052 25.756 1.40901 26.1867C1.83097 26.6175 2.40326 26.8595 3 26.8595C3.59674 26.8595 4.16903 26.6175 4.59099 26.1867C5.01295 25.756 5.25 25.1718 5.25 24.5626V12.4274L9.69375 13.9587C8.32181 16.6416 7.91012 19.7292 8.52967 22.6888C9.14923 25.6485 10.7612 28.2946 13.0875 30.1708C9.90459 31.6824 7.20185 34.0767 5.2875 37.0806C5.12499 37.3332 5.01281 37.616 4.95737 37.9129C4.90193 38.2097 4.90431 38.5148 4.96438 38.8108C5.02444 39.1067 5.14102 39.3877 5.30745 39.6376C5.47389 39.8875 5.68691 40.1016 5.93437 40.2675C6.18183 40.4334 6.45888 40.5479 6.74969 40.6045C7.0405 40.6611 7.33939 40.6586 7.62928 40.5973C7.91918 40.536 8.1944 40.417 8.43924 40.2471C8.68408 40.0772 8.89374 39.8597 9.05625 39.6071C10.3473 37.5728 12.1165 35.9006 14.2026 34.7428C16.2888 33.585 18.6255 32.9785 21 32.9785C23.3745 32.9785 25.7112 33.585 27.7974 34.7428C29.8835 35.9006 31.6527 37.5728 32.9437 39.6071C33.1512 39.9257 33.4328 40.1868 33.7632 40.3671C34.0937 40.5475 34.4628 40.6415 34.8375 40.6407C35.2695 40.6414 35.6926 40.5152 36.0562 40.277C36.5571 39.9408 36.9073 39.4159 37.0302 38.817C37.1532 38.218 37.039 37.5938 36.7125 37.0806C34.7981 34.0767 32.0954 31.6824 28.9125 30.1708C31.2388 28.2946 32.8508 25.6485 33.4703 22.6888C34.0899 19.7292 33.6782 16.6416 32.3062 13.9587L39.7125 11.4321C40.1627 11.2811 40.5546 10.9888 40.8325 10.597C41.1103 10.2052 41.2599 9.7338 41.2599 9.25008C41.2599 8.76637 41.1103 8.29499 40.8325 7.90318C40.5546 7.51136 40.1627 7.21909 39.7125 7.06805ZM21 5.5368L31.8937 9.25008L27.9937 10.5708L21 12.9634L14.0062 10.5708L10.1062 9.25008L21 5.5368ZM29.25 19.9688C29.2487 21.2759 28.9494 22.5648 28.3758 23.7334C27.8021 24.902 26.9699 25.9182 25.945 26.7017C24.92 27.4852 23.7305 28.0143 22.4706 28.2473C21.2107 28.4803 19.9149 28.4108 18.6859 28.0441C17.4569 27.6775 16.3283 27.0238 15.3895 26.1349C14.4508 25.246 13.7276 24.1462 13.2772 22.9227C12.8268 21.6991 12.6616 20.3853 12.7947 19.0852C12.9277 17.7852 13.3554 16.5346 14.0437 15.4325L20.2875 17.5571C20.7506 17.7107 21.2494 17.7107 21.7125 17.5571L27.9562 15.4325C28.8056 16.7863 29.2547 18.3612 29.25 19.9688Z" fill="#8E8B8B"/>
</svg>
